<svg xmlns="http://www.w3.org/2000/svg" width="512" height="512" viewBox="0 0 512 512" role="img" aria-label="Jelto mascot mark pure vector">
<defs>
  <linearGradient id="mint" x1="0" y1="0" x2="1" y2="1"><stop stop-color="#C6F7EF"/><stop offset=".5" stop-color="#7FEAD6"/><stop offset="1" stop-color="#48D9C2"/></linearGradient>
  <linearGradient id="jelly" x1="0" y1="0" x2="0" y2="1"><stop stop-color="#AEF4E8"/><stop offset=".28" stop-color="#94EEE0"/><stop offset=".7" stop-color="#68E5D3"/><stop offset="1" stop-color="#45D7C1"/></linearGradient>
  <linearGradient id="eye" x1="0" y1="0" x2="0" y2="1"><stop stop-color="#23343B"/><stop offset=".28" stop-color="#071116"/><stop offset=".8" stop-color="#02070A"/><stop offset="1" stop-color="#0E514A"/></linearGradient>
  <radialGradient id="specularField" gradientUnits="userSpaceOnUse" cx="64" cy="30" r="54"><stop stop-color="#fff" stop-opacity=".62"/><stop offset=".3" stop-color="#fff" stop-opacity=".42"/><stop offset=".62" stop-color="#fff" stop-opacity=".14"/><stop offset="1" stop-color="#fff" stop-opacity="0"/></radialGradient>
  <radialGradient id="jellyDepth" cx="66%" cy="80%" r="62%"><stop stop-color="#1DD5BD" stop-opacity=".38"/><stop offset=".55" stop-color="#6EE7D6" stop-opacity=".1"/><stop offset="1" stop-color="#D7FFF8" stop-opacity=".08"/></radialGradient>
  <linearGradient id="mintFade" x1="0" y1="0" x2="1" y2="0"><stop stop-color="#7FEAD6" stop-opacity="0"/><stop offset=".45" stop-color="#7FEAD6"/><stop offset="1" stop-color="#C6F7EF" stop-opacity=".15"/></linearGradient>
  <linearGradient id="dark" x1="0" y1="0" x2="1" y2="1"><stop stop-color="#18232D"/><stop offset="1" stop-color="#071019"/></linearGradient>
  <radialGradient id="glow"><stop stop-color="#7FEAD6" stop-opacity=".5"/><stop offset="1" stop-color="#7FEAD6" stop-opacity="0"/></radialGradient>
  <filter id="shadow" x="-30%" y="-30%" width="160%" height="170%"><feDropShadow dx="0" dy="12" stdDeviation="14" flood-color="#0F172A" flood-opacity=".14"/></filter>
  <filter id="softGlow" x="-80%" y="-80%" width="260%" height="260%"><feGaussianBlur stdDeviation="12"/></filter>
  <filter id="jellyShadow" x="-35%" y="-35%" width="170%" height="190%"><feDropShadow dx="0" dy="7" stdDeviation="8" flood-color="#38D9C4" flood-opacity=".28"/></filter>
  <filter id="blur8" x="-80%" y="-80%" width="260%" height="260%"><feGaussianBlur stdDeviation="8"/></filter>
  <filter id="blur4" x="-70%" y="-70%" width="240%" height="240%"><feGaussianBlur stdDeviation="4"/></filter>
  <filter id="blur2" x="-60%" y="-60%" width="220%" height="220%"><feGaussianBlur stdDeviation="2"/></filter>
  <pattern id="dotGrid" width="32" height="32" patternUnits="userSpaceOnUse"><circle cx="2" cy="2" r="1.5" fill="#7FEAD6" opacity=".22"/></pattern>
  
</defs><g transform="translate(31 0) scale(2.25)" opacity="1">
    <ellipse cx="100" cy="188" rx="70" ry="10" fill="#0F766E" opacity=".2" filter="url(#blur8)"/>
    <path d="M100 16C62 16 43 41 42 78C41 103 33 117 19 137C5 158 10 176 26 184C39 191 52 187 64 182C76 191 87 195 100 195C113 195 124 191 136 182C148 187 161 191 174 184C190 176 195 158 181 137C167 117 159 103 158 78C157 41 138 16 100 16Z" fill="url(#jelly)" stroke="#CFFFF7" stroke-width=".8" stroke-opacity=".72"/>
    <path d="M100 16C62 16 43 41 42 78C41 103 33 117 19 137C5 158 10 176 26 184C39 191 52 187 64 182C76 191 87 195 100 195C113 195 124 191 136 182C148 187 161 191 174 184C190 176 195 158 181 137C167 117 159 103 158 78C157 41 138 16 100 16Z" fill="url(#specularField)"/>
    <path d="M100 16C62 16 43 41 42 78C41 103 33 117 19 137C5 158 10 176 26 184C39 191 52 187 64 182C76 191 87 195 100 195C113 195 124 191 136 182C148 187 161 191 174 184C190 176 195 158 181 137C167 117 159 103 158 78C157 41 138 16 100 16Z" fill="url(#jellyDepth)"/>
    <path d="M54 51c-3 7-5 14-5 22" fill="none" stroke="#fff" stroke-width="2.2" stroke-linecap="round" opacity=".38" filter="url(#blur2)"/>
    <ellipse cx="48" cy="139" rx="13" ry="25" fill="#fff" opacity=".12" transform="rotate(12 48 139)" filter="url(#blur4)"/>
    <ellipse cx="79" cy="83" rx="7.5" ry="14.5" fill="url(#eye)" stroke="#063D3A" stroke-width="1.1"/>
    <ellipse cx="121" cy="83" rx="7.5" ry="14.5" fill="url(#eye)" stroke="#063D3A" stroke-width="1.1"/>
    <ellipse cx="76.5" cy="78" rx="2.1" ry="3.6" fill="#fff" opacity=".72"/><ellipse cx="118.5" cy="78" rx="2.1" ry="3.6" fill="#fff" opacity=".72"/>
  </g>
</svg>
